<svg viewBox="0 0 18 20" fill="none" xmlns="http://www.w3.org/2000/svg">
<path d="M12.4872 18.2528V15.0774C12.518 14.6861 12.4651 14.2928 12.3321 13.9236C12.1991 13.5543 11.9891 13.2176 11.7159 12.9358C14.2923 12.6487 17 11.6722 17 7.19224C16.9998 6.04666 16.5591 4.94502 15.7692 4.11532C16.1433 3.11307 16.1168 2.00525 15.6954 1.02198C15.6954 1.02198 14.7272 0.734805 12.4872 2.23634C10.6066 1.72666 8.6242 1.72666 6.74359 2.23634C4.50359 0.734805 3.53538 1.02198 3.53538 1.02198C3.11395 2.00525 3.0875 3.11307 3.46154 4.11532C2.66575 4.95117 2.22463 6.06277 2.23077 7.21686C2.23077 11.664 4.93846 12.6404 7.51487 12.9604C7.24492 13.2394 7.03673 13.5721 6.90384 13.9368C6.77096 14.3015 6.71636 14.6901 6.74359 15.0774V18.2528M6.74359 15.7912C2.64103 17.022 2.64103 13.7399 1 13.3297L6.74359 15.7912Z" stroke="white"  stroke-width="1.5" stroke-linecap="round" stroke-linejoin="round"/>
</svg>
