<svg width="20" height="21" viewBox="0 0 20 21" fill="none" xmlns="http://www.w3.org/2000/svg">
<path d="M18.9809 11.3091C18.8236 13.0113 18.1847 14.6335 17.1391 15.9859C16.0935 17.3383 14.6843 18.3649 13.0766 18.9456C11.4688 19.5264 9.72884 19.6372 8.06036 19.2652C6.39188 18.8932 4.86385 18.0536 3.65508 16.8449C2.44632 15.6361 1.6068 14.1081 1.23477 12.4396C0.862734 10.7711 0.973574 9.03118 1.55432 7.42339C2.13506 5.8156 3.16169 4.40646 4.51407 3.36085C5.86645 2.31523 7.48865 1.6764 9.19086 1.51909C8.19427 2.86736 7.71471 4.52854 7.83939 6.20051C7.96407 7.87247 8.68472 9.44415 9.87026 10.6297C11.0558 11.8152 12.6275 12.5359 14.2994 12.6606C15.9714 12.7852 17.6326 12.3057 18.9809 11.3091V11.3091Z" stroke="#0B1532" stroke-opacity="0.87" stroke-width="2" stroke-linecap="round" stroke-linejoin="round"/>
</svg>
